<mxfile host="Electron" agent="Mozilla/5.0 (Windows NT 10.0; Win64; x64) AppleWebKit/537.36 (KHTML, like Gecko) draw.io/28.1.2 Chrome/138.0.7204.243 Electron/37.4.0 Safari/537.36" version="28.1.2">
  <diagram name="Page-1" id="DDI2oIk4OWf7AWu8Wy9Y">
    <mxGraphModel dx="784" dy="1192" grid="1" gridSize="10" guides="1" tooltips="1" connect="1" arrows="1" fold="1" page="1" pageScale="1" pageWidth="850" pageHeight="1100" math="0" shadow="0">
      <root>
        <mxCell id="0" />
        <mxCell id="1" parent="0" />
        <mxCell id="KsJ1AQlTuMYUAO6TqMri-89" value="" style="rounded=1;whiteSpace=wrap;html=1;fillColor=none;" parent="1" vertex="1">
          <mxGeometry x="550" y="170" width="240" height="460" as="geometry" />
        </mxCell>
        <mxCell id="KsJ1AQlTuMYUAO6TqMri-85" value="" style="rounded=1;whiteSpace=wrap;html=1;fillColor=none;" parent="1" vertex="1">
          <mxGeometry x="10" y="170" width="500" height="460" as="geometry" />
        </mxCell>
        <mxCell id="KsJ1AQlTuMYUAO6TqMri-1" value="Integration Model" style="text;strokeColor=none;fillColor=none;html=1;fontSize=24;fontStyle=1;verticalAlign=middle;align=center;" parent="1" vertex="1">
          <mxGeometry x="20" y="20" width="230" height="40" as="geometry" />
        </mxCell>
        <mxCell id="KsJ1AQlTuMYUAO6TqMri-5" value="(how tables are related)&lt;div&gt;&lt;br&gt;&lt;/div&gt;" style="text;html=1;align=center;verticalAlign=middle;whiteSpace=wrap;rounded=0;" parent="1" vertex="1">
          <mxGeometry x="230" y="40" width="140" height="30" as="geometry" />
        </mxCell>
        <mxCell id="KsJ1AQlTuMYUAO6TqMri-51" value="crm_cust_info" style="swimlane;fontStyle=0;childLayout=stackLayout;horizontal=1;startSize=30;horizontalStack=0;resizeParent=1;resizeParentMax=0;resizeLast=0;collapsible=1;marginBottom=0;whiteSpace=wrap;html=1;rounded=1;fillColor=#1ba1e2;fontColor=#000000;strokeColor=#006EAF;fontSize=20;" parent="1" vertex="1">
          <mxGeometry x="300" y="480" width="170" height="110" as="geometry">
            <mxRectangle x="20" y="180" width="200" height="40" as="alternateBounds" />
          </mxGeometry>
        </mxCell>
        <mxCell id="KsJ1AQlTuMYUAO6TqMri-52" value="cst_id" style="text;strokeColor=none;fillColor=none;align=left;verticalAlign=middle;spacingLeft=4;spacingRight=4;overflow=hidden;points=[[0,0.5],[1,0.5]];portConstraint=eastwest;rotatable=0;whiteSpace=wrap;html=1;fontSize=20;" parent="KsJ1AQlTuMYUAO6TqMri-51" vertex="1">
          <mxGeometry y="30" width="170" height="40" as="geometry" />
        </mxCell>
        <mxCell id="KsJ1AQlTuMYUAO6TqMri-71" value="cst_key" style="text;strokeColor=none;fillColor=none;align=left;verticalAlign=middle;spacingLeft=4;spacingRight=4;overflow=hidden;points=[[0,0.5],[1,0.5]];portConstraint=eastwest;rotatable=0;whiteSpace=wrap;html=1;fontSize=20;" parent="KsJ1AQlTuMYUAO6TqMri-51" vertex="1">
          <mxGeometry y="70" width="170" height="40" as="geometry" />
        </mxCell>
        <mxCell id="KsJ1AQlTuMYUAO6TqMri-55" value="Customer Informaton" style="text;strokeColor=none;fillColor=none;align=left;verticalAlign=middle;spacingLeft=4;spacingRight=4;overflow=hidden;points=[[0,0.5],[1,0.5]];portConstraint=eastwest;rotatable=0;whiteSpace=wrap;html=1;fontSize=16;" parent="1" vertex="1">
          <mxGeometry x="302.5" y="450" width="175" height="30" as="geometry" />
        </mxCell>
        <mxCell id="KsJ1AQlTuMYUAO6TqMri-56" value="crm_prd_info" style="swimlane;fontStyle=0;childLayout=stackLayout;horizontal=1;startSize=30;horizontalStack=0;resizeParent=1;resizeParentMax=0;resizeLast=0;collapsible=1;marginBottom=0;whiteSpace=wrap;html=1;rounded=1;fillColor=#1ba1e2;fontColor=#000000;strokeColor=#006EAF;fontSize=20;" parent="1" vertex="1">
          <mxGeometry x="310" y="225" width="180" height="90" as="geometry">
            <mxRectangle x="20" y="180" width="200" height="40" as="alternateBounds" />
          </mxGeometry>
        </mxCell>
        <mxCell id="KsJ1AQlTuMYUAO6TqMri-57" value="prd_key" style="text;strokeColor=none;fillColor=none;align=left;verticalAlign=middle;spacingLeft=4;spacingRight=4;overflow=hidden;points=[[0,0.5],[1,0.5]];portConstraint=eastwest;rotatable=0;whiteSpace=wrap;html=1;fontSize=20;" parent="KsJ1AQlTuMYUAO6TqMri-56" vertex="1">
          <mxGeometry y="30" width="180" height="40" as="geometry" />
        </mxCell>
        <mxCell id="f6va9-S646o-LU0hgu8t-1" value="PRODUCT" style="text;html=1;strokeColor=#A50040;fillColor=#d80073;align=center;verticalAlign=middle;whiteSpace=wrap;overflow=hidden;fontSize=15;fontStyle=1;fontColor=#ffffff;" vertex="1" parent="KsJ1AQlTuMYUAO6TqMri-56">
          <mxGeometry y="70" width="180" height="20" as="geometry" />
        </mxCell>
        <mxCell id="KsJ1AQlTuMYUAO6TqMri-58" value="Current &amp;amp; History Product Information" style="text;strokeColor=none;fillColor=none;align=center;verticalAlign=middle;spacingLeft=4;spacingRight=4;overflow=hidden;points=[[0,0.5],[1,0.5]];portConstraint=eastwest;rotatable=0;whiteSpace=wrap;html=1;fontSize=16;" parent="1" vertex="1">
          <mxGeometry x="335" y="175" width="130" height="40" as="geometry" />
        </mxCell>
        <mxCell id="KsJ1AQlTuMYUAO6TqMri-60" value="crm_sales_details" style="swimlane;fontStyle=0;childLayout=stackLayout;horizontal=1;startSize=30;horizontalStack=0;resizeParent=1;resizeParentMax=0;resizeLast=0;collapsible=1;marginBottom=0;whiteSpace=wrap;html=1;rounded=1;fillColor=#1ba1e2;fontColor=#0A0A0A;strokeColor=#006EAF;fontSize=20;" parent="1" vertex="1">
          <mxGeometry x="42.5" y="270" width="180" height="110" as="geometry">
            <mxRectangle x="20" y="180" width="200" height="40" as="alternateBounds" />
          </mxGeometry>
        </mxCell>
        <mxCell id="KsJ1AQlTuMYUAO6TqMri-61" value="prd_key" style="text;strokeColor=none;fillColor=none;align=left;verticalAlign=middle;spacingLeft=4;spacingRight=4;overflow=hidden;points=[[0,0.5],[1,0.5]];portConstraint=eastwest;rotatable=0;whiteSpace=wrap;html=1;fontSize=20;" parent="KsJ1AQlTuMYUAO6TqMri-60" vertex="1">
          <mxGeometry y="30" width="180" height="40" as="geometry" />
        </mxCell>
        <mxCell id="KsJ1AQlTuMYUAO6TqMri-63" value="cst_id" style="text;strokeColor=none;fillColor=none;align=left;verticalAlign=middle;spacingLeft=4;spacingRight=4;overflow=hidden;points=[[0,0.5],[1,0.5]];portConstraint=eastwest;rotatable=0;whiteSpace=wrap;html=1;fontSize=20;" parent="KsJ1AQlTuMYUAO6TqMri-60" vertex="1">
          <mxGeometry y="70" width="180" height="40" as="geometry" />
        </mxCell>
        <mxCell id="KsJ1AQlTuMYUAO6TqMri-62" value="Transactional Records about Sales &amp;amp; Orders" style="text;strokeColor=none;fillColor=none;align=center;verticalAlign=middle;spacingLeft=4;spacingRight=4;overflow=hidden;points=[[0,0.5],[1,0.5]];portConstraint=eastwest;rotatable=0;whiteSpace=wrap;html=1;fontSize=16;" parent="1" vertex="1">
          <mxGeometry x="20" y="220" width="225" height="50" as="geometry" />
        </mxCell>
        <mxCell id="KsJ1AQlTuMYUAO6TqMri-66" style="edgeStyle=orthogonalEdgeStyle;rounded=0;orthogonalLoop=1;jettySize=auto;html=1;" parent="1" source="KsJ1AQlTuMYUAO6TqMri-61" target="KsJ1AQlTuMYUAO6TqMri-57" edge="1">
          <mxGeometry relative="1" as="geometry" />
        </mxCell>
        <mxCell id="KsJ1AQlTuMYUAO6TqMri-67" style="edgeStyle=orthogonalEdgeStyle;rounded=0;orthogonalLoop=1;jettySize=auto;html=1;" parent="1" source="KsJ1AQlTuMYUAO6TqMri-63" target="KsJ1AQlTuMYUAO6TqMri-52" edge="1">
          <mxGeometry relative="1" as="geometry" />
        </mxCell>
        <mxCell id="KsJ1AQlTuMYUAO6TqMri-68" value="erp_cust_az12" style="swimlane;fontStyle=0;childLayout=stackLayout;horizontal=1;startSize=30;horizontalStack=0;resizeParent=1;resizeParentMax=0;resizeLast=0;collapsible=1;marginBottom=0;whiteSpace=wrap;html=1;rounded=1;fillColor=#fad7ac;strokeColor=#b46504;fontSize=20;fontColor=#000000;" parent="1" vertex="1">
          <mxGeometry x="580" y="380" width="180" height="70" as="geometry">
            <mxRectangle x="20" y="180" width="200" height="40" as="alternateBounds" />
          </mxGeometry>
        </mxCell>
        <mxCell id="KsJ1AQlTuMYUAO6TqMri-69" value="cid" style="text;strokeColor=none;fillColor=none;align=left;verticalAlign=middle;spacingLeft=4;spacingRight=4;overflow=hidden;points=[[0,0.5],[1,0.5]];portConstraint=eastwest;rotatable=0;whiteSpace=wrap;html=1;fontSize=20;" parent="KsJ1AQlTuMYUAO6TqMri-68" vertex="1">
          <mxGeometry y="30" width="180" height="40" as="geometry" />
        </mxCell>
        <mxCell id="KsJ1AQlTuMYUAO6TqMri-70" value="Extra Customer Information (Birthdate)" style="text;strokeColor=none;fillColor=none;align=center;verticalAlign=middle;spacingLeft=4;spacingRight=4;overflow=hidden;points=[[0,0.5],[1,0.5]];portConstraint=eastwest;rotatable=0;whiteSpace=wrap;html=1;fontSize=16;" parent="1" vertex="1">
          <mxGeometry x="572.5" y="330" width="195" height="40" as="geometry" />
        </mxCell>
        <mxCell id="KsJ1AQlTuMYUAO6TqMri-73" style="edgeStyle=orthogonalEdgeStyle;rounded=0;orthogonalLoop=1;jettySize=auto;html=1;" parent="1" source="KsJ1AQlTuMYUAO6TqMri-69" target="KsJ1AQlTuMYUAO6TqMri-71" edge="1">
          <mxGeometry relative="1" as="geometry" />
        </mxCell>
        <mxCell id="KsJ1AQlTuMYUAO6TqMri-76" value="erp_loc_a101" style="swimlane;fontStyle=0;childLayout=stackLayout;horizontal=1;startSize=30;horizontalStack=0;resizeParent=1;resizeParentMax=0;resizeLast=0;collapsible=1;marginBottom=0;whiteSpace=wrap;html=1;rounded=1;fillColor=#fad7ac;strokeColor=#b46504;fontSize=20;fontColor=#000000;" parent="1" vertex="1">
          <mxGeometry x="587.5" y="520" width="180" height="70" as="geometry">
            <mxRectangle x="20" y="180" width="200" height="40" as="alternateBounds" />
          </mxGeometry>
        </mxCell>
        <mxCell id="KsJ1AQlTuMYUAO6TqMri-77" value="cid" style="text;strokeColor=none;fillColor=none;align=left;verticalAlign=middle;spacingLeft=4;spacingRight=4;overflow=hidden;points=[[0,0.5],[1,0.5]];portConstraint=eastwest;rotatable=0;whiteSpace=wrap;html=1;fontSize=20;" parent="KsJ1AQlTuMYUAO6TqMri-76" vertex="1">
          <mxGeometry y="30" width="180" height="40" as="geometry" />
        </mxCell>
        <mxCell id="KsJ1AQlTuMYUAO6TqMri-78" value="Location of Customers (Country)" style="text;strokeColor=none;fillColor=none;align=center;verticalAlign=middle;spacingLeft=4;spacingRight=4;overflow=hidden;points=[[0,0.5],[1,0.5]];portConstraint=eastwest;rotatable=0;whiteSpace=wrap;html=1;fontSize=16;" parent="1" vertex="1">
          <mxGeometry x="573.75" y="480" width="195" height="40" as="geometry" />
        </mxCell>
        <mxCell id="KsJ1AQlTuMYUAO6TqMri-79" style="edgeStyle=orthogonalEdgeStyle;rounded=0;orthogonalLoop=1;jettySize=auto;html=1;" parent="1" source="KsJ1AQlTuMYUAO6TqMri-77" target="KsJ1AQlTuMYUAO6TqMri-71" edge="1">
          <mxGeometry relative="1" as="geometry" />
        </mxCell>
        <mxCell id="KsJ1AQlTuMYUAO6TqMri-80" value="erp_px_cat_g1v2" style="swimlane;fontStyle=0;childLayout=stackLayout;horizontal=1;startSize=30;horizontalStack=0;resizeParent=1;resizeParentMax=0;resizeLast=0;collapsible=1;marginBottom=0;whiteSpace=wrap;html=1;rounded=1;fillColor=#fad7ac;strokeColor=#b46504;fontSize=20;fontColor=#000000;" parent="1" vertex="1">
          <mxGeometry x="567.5" y="225" width="180" height="90" as="geometry">
            <mxRectangle x="20" y="180" width="200" height="40" as="alternateBounds" />
          </mxGeometry>
        </mxCell>
        <mxCell id="KsJ1AQlTuMYUAO6TqMri-81" value="id" style="text;strokeColor=none;fillColor=none;align=left;verticalAlign=middle;spacingLeft=4;spacingRight=4;overflow=hidden;points=[[0,0.5],[1,0.5]];portConstraint=eastwest;rotatable=0;whiteSpace=wrap;html=1;fontSize=20;" parent="KsJ1AQlTuMYUAO6TqMri-80" vertex="1">
          <mxGeometry y="30" width="180" height="40" as="geometry" />
        </mxCell>
        <mxCell id="f6va9-S646o-LU0hgu8t-2" value="PRODUCT" style="text;html=1;strokeColor=#A50040;fillColor=#d80073;align=center;verticalAlign=middle;whiteSpace=wrap;overflow=hidden;fontSize=15;fontStyle=1;fontColor=#ffffff;" vertex="1" parent="KsJ1AQlTuMYUAO6TqMri-80">
          <mxGeometry y="70" width="180" height="20" as="geometry" />
        </mxCell>
        <mxCell id="KsJ1AQlTuMYUAO6TqMri-82" value="Product Categories" style="text;strokeColor=none;fillColor=none;align=center;verticalAlign=middle;spacingLeft=4;spacingRight=4;overflow=hidden;points=[[0,0.5],[1,0.5]];portConstraint=eastwest;rotatable=0;whiteSpace=wrap;html=1;fontSize=16;" parent="1" vertex="1">
          <mxGeometry x="560" y="185" width="195" height="40" as="geometry" />
        </mxCell>
        <mxCell id="KsJ1AQlTuMYUAO6TqMri-83" style="edgeStyle=orthogonalEdgeStyle;rounded=0;orthogonalLoop=1;jettySize=auto;html=1;" parent="1" source="KsJ1AQlTuMYUAO6TqMri-81" target="KsJ1AQlTuMYUAO6TqMri-57" edge="1">
          <mxGeometry relative="1" as="geometry" />
        </mxCell>
        <mxCell id="KsJ1AQlTuMYUAO6TqMri-93" style="edgeStyle=orthogonalEdgeStyle;rounded=0;orthogonalLoop=1;jettySize=auto;html=1;exitX=0.5;exitY=0;exitDx=0;exitDy=0;" parent="1" source="KsJ1AQlTuMYUAO6TqMri-87" edge="1">
          <mxGeometry relative="1" as="geometry">
            <mxPoint x="250" y="140" as="targetPoint" />
          </mxGeometry>
        </mxCell>
        <mxCell id="KsJ1AQlTuMYUAO6TqMri-87" value="CRM" style="text;html=1;align=center;verticalAlign=middle;whiteSpace=wrap;rounded=0;fontSize=26;fillColor=#1ba1e2;strokeColor=#006EAF;fontColor=#0A0A0A;" parent="1" vertex="1">
          <mxGeometry x="170" y="150" width="130" height="30" as="geometry" />
        </mxCell>
        <mxCell id="KsJ1AQlTuMYUAO6TqMri-92" value="ERP" style="text;html=1;align=center;verticalAlign=middle;whiteSpace=wrap;rounded=0;fontSize=26;fillColor=#fad7ac;strokeColor=#b46504;fontColor=#000000;" parent="1" vertex="1">
          <mxGeometry x="600" y="150" width="130" height="30" as="geometry" />
        </mxCell>
        <mxCell id="f6va9-S646o-LU0hgu8t-4" value="CUSTOMER" style="text;html=1;strokeColor=#2D7600;fillColor=#60a917;align=center;verticalAlign=middle;whiteSpace=wrap;overflow=hidden;fontSize=15;fontStyle=1;fontColor=#ffffff;" vertex="1" parent="1">
          <mxGeometry x="300" y="590" width="177.5" height="20" as="geometry" />
        </mxCell>
        <mxCell id="f6va9-S646o-LU0hgu8t-5" value="CUSTOMER" style="text;html=1;strokeColor=#2D7600;fillColor=#60a917;align=center;verticalAlign=middle;whiteSpace=wrap;overflow=hidden;fontSize=15;fontStyle=1;fontColor=#ffffff;" vertex="1" parent="1">
          <mxGeometry x="587.5" y="590" width="177.5" height="20" as="geometry" />
        </mxCell>
        <mxCell id="f6va9-S646o-LU0hgu8t-6" value="CUSTOMER" style="text;html=1;strokeColor=#2D7600;fillColor=#60a917;align=center;verticalAlign=middle;whiteSpace=wrap;overflow=hidden;fontSize=15;fontStyle=1;fontColor=#ffffff;" vertex="1" parent="1">
          <mxGeometry x="582.5" y="450" width="177.5" height="20" as="geometry" />
        </mxCell>
        <mxCell id="f6va9-S646o-LU0hgu8t-7" value="SALES" style="text;html=1;strokeColor=#3700CC;fillColor=#6a00ff;align=center;verticalAlign=middle;whiteSpace=wrap;overflow=hidden;fontSize=15;fontStyle=1;fontColor=#ffffff;" vertex="1" parent="1">
          <mxGeometry x="45" y="380" width="177.5" height="20" as="geometry" />
        </mxCell>
      </root>
    </mxGraphModel>
  </diagram>
</mxfile>
